<?xml version="1.0"?>
<!-- Converted with SVG Converter - Version 0.9.5 (Compiled Mon May 30 09:08:51 2011) - Copyright (C) 2011 Nokia -->
<svg xmlns="http://www.w3.org/2000/svg" width="96px" x="0px" version="1.1" y="0px" height="96px" viewBox="0 0 96 96" xmlns:xlink="http://www.w3.org/1999/xlink" baseProfile="tiny" id="ORANGE_BACKGROUNDS" xml:space="preserve">
 <g id="layer5">
  <rect width="96" y="-0.001" height="96" fill-opacity="0" id="rect3119"/>
 </g>
 <g id="layer4">
  <path stroke-opacity="0.4" fill-opacity="0.4" id="SHADOW" d="M88.023,49c0,29.633-10.364,40-40,40c-29.635,0-40-10.367-40-40&#xd;&#xa;&#x9;&#x9;c0-29.634,10.366-40,40-40C77.659,9,88.023,19.365,88.023,49z"/>
 </g>
 <g id="layer27">
  <g id="VIOLET_x2F_PINK_BACKGROUNDS-7">
   <g id="VIOLET_2_2_">
    <linearGradient gradientTransform="matrix(1 0 0 -1 24.9448 87.3594)" id="VIOLET_2_3_" y1="79.3496" x1="23.0552" y2="-3.397" gradientUnits="userSpaceOnUse" x2="23.0552">
     <stop offset="0.0364" style="stop-color:#BA66E0"/>
     <stop offset="0.2174" style="stop-color:#B260D8"/>
     <stop offset="0.497" style="stop-color:#9D51C2"/>
     <stop offset="0.8385" style="stop-color:#7C379F"/>
     <stop offset="1" style="stop-color:#69298C"/>
    </linearGradient>
    <path fill="url(#VIOLET_2_3_)" id="VIOLET_2_1_" d="M8,47.989c0,29.633,10.365,40,40,40c29.637,0,40-10.366,40-40&#xd;&#xa;&#x9;&#x9;&#x9;&#x9;c0-28.985-9.926-39.53-38.091-39.979h-3.817C17.928,8.459,8,19.004,8,47.989z"/>
    <linearGradient gradientTransform="matrix(1 0 0 -1 24.9448 87.3594)" id="HIGHLIGHT_VIO2_1_" y1="79.1035" x1="23.0552" y2="-0.1454" gradientUnits="userSpaceOnUse" x2="23.0552">
     <stop offset="0.0364" style="stop-color:#FFFFFF"/>
     <stop offset="0.1299" style="stop-color:#F9F7FB"/>
     <stop offset="0.2745" style="stop-color:#EAE1EF"/>
     <stop offset="0.452" style="stop-color:#D1BEDC"/>
     <stop offset="0.6558" style="stop-color:#AF8CC1"/>
     <stop offset="0.8786" style="stop-color:#834EA0"/>
     <stop offset="1" style="stop-color:#69298C"/>
    </linearGradient>
    <path stroke-opacity="0.25" fill="url(#HIGHLIGHT_VIO2_1_)" fill-opacity="0.25" id="HIGHLIGHT_VIO2" d="M48,8&#xd;&#xa;&#x9;&#x9;&#x9;&#x9;C18.365,8,8,18.365,8,48c0,29.632,10.365,40,40,40c29.637,0,40-10.367,40-40C88,18.365,77.637,8,48,8z M48,87.023&#xd;&#xa;&#x9;&#x9;&#x9;&#x9;C18.842,87.023,9,77.176,9,48C9,18.824,18.842,8.976,48,8.976S87,18.824,87,48C87,77.176,77.158,87.023,48,87.023z"/>
   </g>
  </g>
 </g>
 <g id="layer28">
  <g id="VIOLET_x2F_PINK_BACKGROUNDS-9">
   <g id="VIOLET_1_2_">
    <linearGradient gradientTransform="matrix(1 0 0 -1 24.9448 87.3594)" id="VIOLET_1_3_" y1="77.5977" x1="23.0552" y2="-2.3809" gradientUnits="userSpaceOnUse" x2="23.0552">
     <stop offset="0.0364" style="stop-color:#A14DDB"/>
     <stop offset="0.2205" style="stop-color:#9949D3"/>
     <stop offset="0.505" style="stop-color:#833CBE"/>
     <stop offset="0.8523" style="stop-color:#60299D"/>
     <stop offset="1" style="stop-color:#4F1F8C"/>
    </linearGradient>
    <path fill="url(#VIOLET_1_3_)" id="VIOLET_1_1_" d="M8,47.989c0,29.633,10.365,40,40,40c29.637,0,40-10.366,40-40&#xd;&#xa;&#x9;&#x9;&#x9;&#x9;c0-28.985-9.926-39.53-38.091-39.979h-3.817C17.928,8.459,8,19.004,8,47.989z"/>
    <linearGradient gradientTransform="matrix(1 0 0 -1 24.9448 87.3594)" id="HIGHLIGHT_VIO1_1_" y1="79.1035" x1="23.0552" y2="-0.1454" gradientUnits="userSpaceOnUse" x2="23.0552">
     <stop offset="0.0364" style="stop-color:#FFFFFF"/>
     <stop offset="1" style="stop-color:#4A1F8C"/>
    </linearGradient>
    <path stroke-opacity="0.25" fill="url(#HIGHLIGHT_VIO1_1_)" fill-opacity="0.25" id="HIGHLIGHT_VIO1" d="M48,8&#xd;&#xa;&#x9;&#x9;&#x9;&#x9;C18.365,8,8,18.365,8,48c0,29.632,10.365,40,40,40c29.637,0,40-10.367,40-40C88,18.365,77.637,8,48,8z M48,87.023&#xd;&#xa;&#x9;&#x9;&#x9;&#x9;C18.842,87.023,9,77.176,9,48C9,18.824,18.842,8.977,48,8.977S87,18.824,87,48C87,77.176,77.158,87.023,48,87.023z"/>
   </g>
  </g>
 </g>
 <g id="layer7">
  <g id="g7353" transform="translate(-18.75,-9.75)">
   <path fill-opacity="0.3122" d="M95.001,33.998L75.252,53.743c0,0-1.406,1.406-2.815,0c-1.418-1.414,0-2.82,0-2.82l19.739-19.746&#xd;&#xa;&#x9;&#x9;&#x9;l-1.409-1.411c0,0-18.33,18.334-19.748,19.743c-0.807,0.811-1.136,2.083-1.017,3.287l-5.09,5.086&#xd;&#xa;&#x9;&#x9;&#x9;c-1.038-1.247-5.501-6.039-9.61-1.668c-2.398,2.545-1.041,4.497-3.274,6.723c-2.237,2.241-5.033-0.553-9.5,3.913&#xd;&#xa;&#x9;&#x9;&#x9;c-6.705,6.705,1.937,15.346,1.937,15.346s8.165,8.165,14.827,1.425c4.437-4.503,1.673-7.273,3.907-9.499&#xd;&#xa;&#x9;&#x9;&#x9;c2.24-2.239,5.703-1.503,8.081-8.07c-3.978,3.982-6.931,0.526-7.538-0.29l9.596-9.593c1.217,0.132,2.506-0.197,3.323-1.018&#xd;&#xa;&#x9;&#x9;&#x9;c1.419-1.406,19.748-19.743,19.748-19.743L95.001,33.998z"/>
  </g>
 </g>
 <g id="g10" transform="matrix(0.48435763,0,0,0.48435763,18.115737,16.399556)">
  <g id="g12">
   <path fill="#F9C478" id="path14" d="M13.366,114.881c0,0-17.841-17.839-3.998-31.683c9.222-9.22,14.994-3.452,19.614-8.079&#xd;&#xa;&#x9;&#x9;&#x9;c4.61-4.595,1.807-8.625,6.758-13.88c9.676-10.292,20.305,4.022,20.305,4.022l6.104,6.117l-9.234,9.222&#xd;&#xa;&#x9;&#x9;&#x9;c0,0,6.578,10.192,15.812,0.95c-4.909,13.557-12.058,12.037-16.683,16.66c-4.611,4.595,1.094,10.315-8.066,19.612&#xd;&#xa;&#x9;&#x9;&#x9;C30.223,131.738,13.366,114.881,13.366,114.881z"/>
  </g>
 </g>
 <g id="g10_1_" transform="matrix(0.48435763,0,0,0.48435763,18.115737,16.399556)">
  <g>
   <g id="g12_9_">
    <path fill="#FFC440" id="path14_9_" d="M13.366,114.881c0,0-17.841-17.839-3.998-31.683c9.222-9.22,14.994-3.452,19.614-8.079&#xd;&#xa;&#x9;&#x9;&#x9;&#x9;c4.61-4.595,1.807-8.625,6.758-13.88c9.676-10.292,20.305,4.022,20.305,4.022l6.104,6.117l-9.234,9.222&#xd;&#xa;&#x9;&#x9;&#x9;&#x9;c0,0,6.578,10.192,15.812,0.95c-4.909,13.557-12.058,12.037-16.683,16.66c-4.611,4.595,1.094,10.315-8.066,19.612&#xd;&#xa;&#x9;&#x9;&#x9;&#x9;C30.223,131.738,13.366,114.881,13.366,114.881z"/>
   </g>
  </g>
 </g>
 <g id="g10_2_" transform="matrix(0.48435763,0,0,0.48435763,18.115737,16.399556)">
  <g>
   <g id="g12_11_">
    <linearGradient gradientTransform="matrix(1 0 0 1 -6.103516e-05 6.103516e-05)" id="path14_3_" y1="78.1135" x1="14.8795" y2="89.5666" gradientUnits="userSpaceOnUse" x2="34.7169">
     <stop offset="0" style="stop-color:#DB8C4B"/>
     <stop offset="0.028" style="stop-color:#D87F47"/>
     <stop offset="0.0977" style="stop-color:#D1643D"/>
     <stop offset="0.1778" style="stop-color:#CB4E36"/>
     <stop offset="0.2714" style="stop-color:#C63D30"/>
     <stop offset="0.387" style="stop-color:#C3322C"/>
     <stop offset="0.5494" style="stop-color:#C12B2A"/>
     <stop offset="1" style="stop-color:#C12929"/>
    </linearGradient>
    <path fill="url(#path14_3_)" id="path14_11_" d="M15.795,112.3c0,0-15.958-15.958-3.575-28.342&#xd;&#xa;&#x9;&#x9;&#x9;&#x9;c8.25-8.244,13.505-2.385,17.638-6.526c5.787-5.208,3.162-9.26,5.952-13.117c8.658-9.204,18.166,3.603,18.166,3.603l5.461,5.472&#xd;&#xa;&#x9;&#x9;&#x9;&#x9;l-8.123,8.113c0,0,5.378,10.047,13.761,4.256c-6.924,9.228-10.541,7.496-14.677,11.633c-4.125,4.109,0.978,9.224-7.217,17.543&#xd;&#xa;&#x9;&#x9;&#x9;&#x9;C30.875,127.379,15.795,112.3,15.795,112.3z"/>
   </g>
  </g>
 </g>
 <linearGradient id="SVGID_1_" y1="60.1964" x1="21.7539" y2="60.1964" gradientUnits="userSpaceOnUse" x2="47.626">
  <stop offset="0" style="stop-color:#C12929"/>
  <stop offset="0.2227" style="stop-color:#C32E2B"/>
  <stop offset="0.4724" style="stop-color:#C83B32"/>
  <stop offset="0.7352" style="stop-color:#D0523C"/>
  <stop offset="1" style="stop-color:#DB704B"/>
 </linearGradient>
 <path fill="url(#SVGID_1_)" d="M42.97,55.876l3.935-3.93l-2.645-2.65c0,0-4.605-6.203-8.799-1.745&#xd;&#xa;&#x9;c-1.351,1.868-0.08,3.831-2.883,6.354c-2.002,2.006-4.547-0.832-8.543,3.16c-5.998,5.998,1.731,13.729,1.731,13.729&#xd;&#xa;&#x9;s7.304,7.303,13.264,1.275c3.969-4.029,1.498-6.506,3.496-8.496c2.003-2.004,3.755-1.166,7.109-5.635&#xd;&#xa;&#x9;C45.575,60.743,42.97,55.876,42.97,55.876z M40.758,61.806c-1.495,1.488-1.604,3.178-1.685,4.412&#xd;&#xa;&#x9;c-0.087,1.344-0.156,2.404-1.824,4.098c-1.089,1.102-2.258,1.639-3.57,1.639c-2.604,0-5.324-2.119-6.151-2.936&#xd;&#xa;&#x9;c-0.005-0.004-1.672-1.707-2.633-3.949c-1.432-3.344-0.167-5.16,0.908-6.236c0,0,1.209-1.203,2.207-1.488s1.872-0.111,1.872-0.111&#xd;&#xa;&#x9;c1.075,0,2.867,0,4.415-1.512c2.301-2.094,2.627-4.121,2.844-5.467c0.097-0.604,0.155-0.904,0.277-1.129&#xd;&#xa;&#x9;c0.704-0.687,1.195-0.687,1.363-0.687c1.294,0,2.926,1.612,3.472,2.347l0.109,0.146l1.009,1.012l-3.48,3.475l0.876,1.637&#xd;&#xa;&#x9;c0.143,0.268,1.008,1.803,2.572,2.951C42.546,60.403,41.672,60.89,40.758,61.806z"/>
 <linearGradient id="SVGID_2_" y1="50.5167" x1="29.7964" y2="69.4891" gradientUnits="userSpaceOnUse" x2="40.7501">
  <stop offset="0" style="stop-color:#C12929"/>
  <stop offset="0.3929" style="stop-color:#C22B2A"/>
  <stop offset="0.5344" style="stop-color:#C4322F"/>
  <stop offset="0.6353" style="stop-color:#C73D38"/>
  <stop offset="0.7169" style="stop-color:#CD4E44"/>
  <stop offset="0.7868" style="stop-color:#D46454"/>
  <stop offset="0.8487" style="stop-color:#DC8068"/>
  <stop offset="0.9046" style="stop-color:#E7A080"/>
  <stop offset="0.9544" style="stop-color:#F2C49A"/>
  <stop offset="1" style="stop-color:#FFEDB8"/>
 </linearGradient>
 <path stroke-opacity="0.5" fill="url(#SVGID_2_)" fill-opacity="0.5" d="M42.97,55.876l3.935-3.93l-2.645-2.65c0,0-4.605-6.203-8.799-1.745&#xd;&#xa;&#x9;c-1.351,1.868-0.08,3.831-2.883,6.354c-2.002,2.006-4.547-0.832-8.543,3.16c-5.998,5.998,1.731,13.729,1.731,13.729&#xd;&#xa;&#x9;s7.304,7.303,13.264,1.275c3.969-4.029,1.498-6.506,3.496-8.496c2.003-2.004,3.755-1.166,7.109-5.635&#xd;&#xa;&#x9;C45.575,60.743,42.97,55.876,42.97,55.876z M40.758,61.806c-1.495,1.488-1.604,3.178-1.685,4.412&#xd;&#xa;&#x9;c-0.087,1.344-0.156,2.404-1.824,4.098c-1.089,1.102-2.258,1.639-3.57,1.639c-2.604,0-5.324-2.119-6.151-2.936&#xd;&#xa;&#x9;c-0.005-0.004-1.672-1.707-2.633-3.949c-1.432-3.344-0.167-5.16,0.908-6.236c0,0,1.209-1.203,2.207-1.488s1.872-0.111,1.872-0.111&#xd;&#xa;&#x9;c1.075,0,2.867,0,4.415-1.512c2.301-2.094,2.627-4.121,2.844-5.467c0.097-0.604,0.155-0.904,0.277-1.129&#xd;&#xa;&#x9;c0.704-0.687,1.195-0.687,1.363-0.687c1.294,0,2.926,1.612,3.472,2.347l0.109,0.146l1.009,1.012l-3.48,3.475l0.876,1.637&#xd;&#xa;&#x9;c0.143,0.268,1.008,1.803,2.572,2.951C42.546,60.403,41.672,60.89,40.758,61.806z"/>
 <g id="g30" transform="matrix(0.48435763,0,0,0.48435763,18.115737,16.399556)">
  <path fill="#FFEDB8" d="M31.607,123.539c-9.779,0-18.303-8.426-18.388-8.512c-0.044-0.044-4.519-4.557-7.233-10.712&#xd;&#xa;&#x9;&#x9;C3.47,98.608,1.988,90.285,9.221,83.053c5.454-5.452,9.773-5.72,13.241-5.936c2.421-0.151,4.511-0.28,6.372-2.143&#xd;&#xa;&#x9;&#x9;c2.232-2.226,2.691-4.305,3.177-6.504c0.507-2.294,1.031-4.669,3.578-7.371c2.357-2.509,4.983-3.781,7.805-3.781&#xd;&#xa;&#x9;&#x9;c6.923,0,12.76,7.743,12.817,7.822l6.231,6.24l-9.259,9.246c0.551,0.776,3.48,4.583,7.801,4.583c2.518,0,5.22-1.135,7.744-3.657&#xd;&#xa;&#x9;&#x9;l0,0c-3.399,9.381-7.687,11.684-11.643,13.654c-1.783,0.887-3.469,1.726-4.895,3.151c-1.86,1.853-1.995,3.938-2.151,6.349&#xd;&#xa;&#x9;&#x9;c-0.224,3.462-0.503,7.77-5.914,13.263C40.456,121.665,36.245,123.539,31.607,123.539z M43.394,58.041&#xd;&#xa;&#x9;&#x9;c-2.605,0-5.051,1.201-7.266,3.57c-2.418,2.569-2.914,4.837-3.394,7.028c-0.506,2.234-1.018,4.496-3.385,6.859&#xd;&#xa;&#x9;&#x9;c-2.008,2.02-4.172,2.171-6.678,2.347c-3.667,0.212-7.642,0.44-12.932,5.734c-12.66,12.656,2.228,29.084,3.967,30.916&#xd;&#xa;&#x9;&#x9;c1.529,1.448,9.24,8.315,17.902,8.315c4.432,0,8.465-1.807,11.988-5.367c5.225-5.295,5.493-9.446,5.709-12.783&#xd;&#xa;&#x9;&#x9;c0.176-2.581,0.328-4.782,2.371-6.831c1.479-1.48,3.167-2.331,4.954-3.232c3.64-1.8,7.62-3.766,10.794-11.176&#xd;&#xa;&#x9;&#x9;c-2.155,1.684-4.956,3.111-7.079,3.111c-4.803,0-11.003-5.129-7.853-5.597l-0.25-0.407l0.312-0.288l8.846-8.861l-6.897-5.047&#xd;&#xa;&#x9;&#x9;C54.424,66.232,49.918,58.041,43.394,58.041z"/>
  <path fill="#FFEDB8" id="path32" d="M43.394,57.835c6.649,0,12.332,7.547,12.415,7.664l5.882,5.881l-8.998,9.012l-0.188,0.173&#xd;&#xa;&#x9;&#x9;l0.14,0.232c0.132,0.188,3.272,4.956,8.338,4.956c2.305,0,4.639-1.03,6.946-3.014c-3.248,8.103-7.4,10.162-11.085,11.982&#xd;&#xa;&#x9;&#x9;c-1.814,0.915-3.533,1.766-5.022,3.254c-1.998,2.004-2.138,4.17-2.312,6.7c-0.217,3.355-0.489,7.565-5.767,12.914&#xd;&#xa;&#x9;&#x9;c-3.552,3.589-7.628,5.428-12.135,5.428c-9.551,0-17.934-8.279-18.018-8.343c-0.171-0.194-17.451-17.791-3.997-31.239&#xd;&#xa;&#x9;&#x9;c5.321-5.327,9.352-5.581,12.907-5.784c2.527-0.177,4.708-0.29,6.703-2.296c2.342-2.339,2.843-4.609,3.33-6.758&#xd;&#xa;&#x9;&#x9;c0.491-2.244,0.995-4.522,3.445-7.125C38.236,59.054,40.725,57.835,43.394,57.835 M43.394,57.524c-2.473,0-5.093,0.99-7.655,3.716&#xd;&#xa;&#x9;&#x9;c-4.95,5.254-2.148,9.285-6.758,13.88c-4.62,4.627-10.39-1.141-19.614,8.079c-13.843,13.843,3.998,31.683,3.998,31.683&#xd;&#xa;&#x9;&#x9;s8.436,8.452,18.242,8.452c4.053,0,8.346-1.454,12.369-5.51c9.161-9.297,3.456-15.017,8.067-19.612&#xd;&#xa;&#x9;&#x9;c4.625-4.623,11.773-3.103,16.684-16.66c-2.879,2.879-5.512,3.863-7.744,3.863c-4.96,0-8.068-4.813-8.068-4.813l9.234-9.222&#xd;&#xa;&#x9;&#x9;l-6.104-6.117C56.045,65.262,50.292,57.524,43.394,57.524L43.394,57.524z"/>
 </g>
 <polygon fill="#41281B" points="54.045,45.398 &#xd;&#xa;&#x9;43.345,56.129 39.993,52.771 50.685,42.045 " stroke="#FFEDB8" id="rect34" stroke-width="0.25" stroke-miterlimit="10"/>
 <polygon fill="#FFEDB8" points="42.484,57.54 &#xd;&#xa;&#x9;40.251,59.768 36.339,55.865 38.572,53.627 " stroke="#89490E" id="rect36" stroke-width="0.1" stroke-miterlimit="10"/>
 <polygon fill="#FFEDB8" points="37.53,62.478 &#xd;&#xa;&#x9;35.292,64.718 31.385,60.804 33.619,58.566 " stroke="#89490E" id="rect36_1_" stroke-width="0.1" stroke-miterlimit="10"/>
 <g id="rect40">
  <polygon fill="#FFEDB8" points="34.109,67.039 33.55,67.593 28.519,62.573 29.078,62.007 &#x9;"/>
  <polygon fill="none" points="34.109,67.039 33.55,67.593 &#xd;&#xa;&#x9;&#x9;28.519,62.573 29.078,62.007 &#x9;" stroke="#89490E" stroke-width="0.1" stroke-miterlimit="10"/>
 </g>
 <polygon fill="#FFEDB8" points="35.222,65.919 &#xd;&#xa;&#x9;34.667,66.479 29.637,61.452 30.197,60.886 " stroke="#89490E" id="rect42" stroke-width="0.1" stroke-miterlimit="10"/>
 <g id="line44">
  <rect width="0.073" x="40.762" y="38.4" fill="#FFFFFF" height="29.304" transform="matrix(0.7138 0.7003 -0.7003 0.7138 48.8305 -13.3893)"/>
 </g>
 <g id="line48">
  <rect width="0.073" x="42.991" y="40.643" fill="#FFFFFF" height="29.298" transform="matrix(0.7138 0.7003 -0.7003 0.7138 51.0371 -14.3096)"/>
 </g>
 <g id="line50">
  <rect width="0.073" x="42.435" y="40.08" fill="#FFFFFF" height="29.298" transform="matrix(0.7138 0.7003 -0.7003 0.7138 50.4837 -14.0812)"/>
 </g>
 <g id="line52">
  <rect width="0.073" x="41.881" y="39.52" fill="#FFFFFF" height="29.304" transform="matrix(0.7138 0.7003 -0.7003 0.7138 49.9351 -13.8526)"/>
 </g>
 <g id="line44_1_">
  <rect width="0.073" x="40.859" y="38.4" fill="#89490E" height="29.304" transform="matrix(0.7138 0.7003 -0.7003 0.7138 48.8585 -13.4577)"/>
 </g>
 <g id="line48_1_">
  <rect width="0.073" x="43.089" y="40.643" fill="#89490E" height="29.298" transform="matrix(0.7138 0.7003 -0.7003 0.7138 51.0651 -14.378)"/>
 </g>
 <g id="line50_1_">
  <rect width="0.073" x="42.532" y="40.08" fill="#89490E" height="29.298" transform="matrix(0.7138 0.7003 -0.7003 0.7138 50.5116 -14.1496)"/>
 </g>
 <g id="line52_1_">
  <rect width="0.073" x="41.978" y="39.52" fill="#89490E" height="29.304" transform="matrix(0.7138 0.7003 -0.7003 0.7138 49.9631 -13.921)"/>
 </g>
 <g id="line54_1_">
  <rect width="0.073" x="41.415" y="38.963" fill="#89490E" height="29.293" transform="matrix(0.7138 0.7003 -0.7003 0.7138 49.4078 -13.6876)"/>
 </g>
 <g id="line54">
  <rect width="0.073" x="41.318" y="38.963" fill="#FFFFFF" height="29.293" transform="matrix(0.7138 0.7003 -0.7003 0.7138 49.3798 -13.6192)"/>
 </g>
 <path fill="#FFEDB8" id="circle60" d="M38.868,47.081c0.921,0,1.664,0.755,1.664,1.662c0,0.923-0.743,1.677-1.664,1.677&#xd;&#xa;&#x9;s-1.664-0.754-1.664-1.677C37.204,47.836,37.947,47.081,38.868,47.081z"/>
 <path fill="#FFEDB8" stroke="#89490E" id="circle60_1_" stroke-width="0.25" d="M38.868,47.081&#xd;&#xa;&#x9;c0.921,0,1.664,0.755,1.664,1.662c0,0.923-0.743,1.677-1.664,1.677s-1.664-0.754-1.664-1.677&#xd;&#xa;&#x9;C37.204,47.836,37.947,47.081,38.868,47.081z" stroke-miterlimit="10"/>
 <path fill="#FFEDB8" stroke="#89490E" id="circle60_2_" stroke-width="0.25" d="M31.94,70.727&#xd;&#xa;&#x9;c0.553,0,1,0.454,1,0.999c0,0.555-0.447,1.008-1,1.008s-1-0.453-1-1.008C30.94,71.181,31.387,70.727,31.94,70.727z" stroke-miterlimit="10"/>
 <path fill="#FFEDB8" stroke="#89490E" id="circle60_3_" stroke-width="0.25" d="M35.982,70.581&#xd;&#xa;&#x9;c0.553,0,1,0.454,1,0.999c0,0.555-0.447,1.008-1,1.008s-1-0.453-1-1.008C34.982,71.035,35.429,70.581,35.982,70.581z" stroke-miterlimit="10"/>
 <path fill="#FFEDB8" stroke="#89490E" id="circle60_4_" stroke-width="0.25" d="M38.715,67.593&#xd;&#xa;&#x9;c0.553,0,1,0.454,1,0.999c0,0.555-0.447,1.008-1,1.008s-1-0.453-1-1.008C37.715,68.047,38.162,67.593,38.715,67.593z" stroke-miterlimit="10"/>
 <g id="g66" transform="matrix(0.48435763,0,0,0.48435763,18.115737,16.399556)">
  <g id="g68">
   <linearGradient gradientTransform="matrix(1 0 0 1 -6.103516e-05 6.103516e-05)" id="path70_1_" y1="58.9274" x1="68.2433" y2="36.3604" gradientUnits="userSpaceOnUse" x2="90.8103">
    <stop offset="0" style="stop-color:#827E7F"/>
    <stop offset="0.5912" style="stop-color:#F9ECE2"/>
    <stop offset="1" style="stop-color:#908C92"/>
   </linearGradient>
   <path fill="url(#path70_1_)" stroke="#FFEDB8" id="path70" stroke-width="0.2" d="M109.011,6.515&#xd;&#xa;&#x9;&#x9;&#x9;l2.909,2.914L71.167,50.195c0,0-2.93,2.904,0,5.823c2.909,2.903,5.813,0,5.813,0l40.774-40.764l2.905,2.906&#xd;&#xa;&#x9;&#x9;&#x9;c0,0-37.842,37.857-40.774,40.76c-2.905,2.919-8.718,2.919-11.648,0c-2.905-2.903-2.903-8.726,0-11.644&#xd;&#xa;&#x9;&#x9;&#x9;C71.167,44.369,109.011,6.515,109.011,6.515z" stroke-miterlimit="10"/>
  </g>
 </g>
 <line fill="#89490E" stroke="#FFEDB8" id="line86" y1="52.74" stroke-width="0.25" x1="40.06" y2="56.086" x2="43.413" stroke-miterlimit="10"/>
 <line fill="#89490E" stroke="#FFEDB8" id="line94" y1="50.467" stroke-width="0.25" x1="42.338" y2="53.813" x2="45.691" stroke-miterlimit="10"/>
 <line fill="#89490E" stroke="#FFEDB8" id="line98" y1="48.248" stroke-width="0.25" x1="44.514" y2="51.608" x2="47.867" stroke-miterlimit="10"/>
 <line fill="#89490E" stroke="#FFEDB8" id="line102" y1="46.174" stroke-width="0.25" x1="46.625" y2="49.533" x2="49.978" stroke-miterlimit="10"/>
 <line fill="#89490E" stroke="#FFEDB8" id="line106" y1="43.83" stroke-width="0.25" x1="48.976" y2="47.113" x2="52.266" stroke-miterlimit="10"/>
</svg>
